<?xml version="1.0" encoding="UTF-8" standalone="no"?>
<svg
   xmlns:dc="http://purl.org/dc/elements/1.1/"
   xmlns:cc="http://creativecommons.org/ns#"
   xmlns:rdf="http://www.w3.org/1999/02/22-rdf-syntax-ns#"
   xmlns:svg="http://www.w3.org/2000/svg"
   xmlns="http://www.w3.org/2000/svg"
   xmlns:sodipodi="http://sodipodi.sourceforge.net/DTD/sodipodi-0.dtd"
   xmlns:inkscape="http://www.inkscape.org/namespaces/inkscape"
   viewBox="0 0 32 32"
   version="1.1"
   id="svg3355"
   height="32"
   width="32"
   inkscape:version="0.48+devel r13483 custom"
   sodipodi:docname="close-window.svg">
  <sodipodi:namedview
     pagecolor="#ffffff"
     bordercolor="#666666"
     borderopacity="1"
     objecttolerance="10"
     gridtolerance="10"
     guidetolerance="10"
     inkscape:pageopacity="0"
     inkscape:pageshadow="2"
     inkscape:window-width="1600"
     inkscape:window-height="850"
     id="namedview3464"
     showgrid="false"
     inkscape:zoom="20.875"
     inkscape:cx="27.113772"
     inkscape:cy="16"
     inkscape:window-x="0"
     inkscape:window-y="25"
     inkscape:window-maximized="1"
     inkscape:current-layer="layer1" />
  <defs
     id="defs3357" />
  <metadata
     id="metadata3360">
    <rdf:RDF>
      <cc:Work
         rdf:about="">
        <dc:format>image/svg+xml</dc:format>
        <dc:type
           rdf:resource="http://purl.org/dc/dcmitype/StillImage" />
        <dc:title></dc:title>
      </cc:Work>
    </rdf:RDF>
  </metadata>
  <g
     transform="translate(-142.05271,-724.17563)"
     id="layer1">
    <circle
       r="14.992949"
       cy="740.17566"
       cx="158.0527"
       id="path3373"
       style="fill:#3d9bda;fill-opacity:1;fill-rule:evenodd;stroke:none;stroke-width:0.06533032px;stroke-linecap:butt;stroke-linejoin:miter;stroke-opacity:1"
       d="m 173.04565,740.17566 a 14.992949,14.992949 0 0 1 -14.99295,14.99295 14.992949,14.992949 0 0 1 -14.99294,-14.99295 14.992949,14.992949 0 0 1 14.99294,-14.99295 14.992949,14.992949 0 0 1 14.99295,14.99295 z" />
    <polygon
       style="fill:#ffffff"
       transform="matrix(0.11287358,0,0,0.11287358,152.63478,734.7577)"
       points="48,34 14,0 0,14 34,48 0,82 14,96 48,62 82,96 96,82 62,48 96,14 82,0 "
       id="polygon3364" />
  </g>
</svg>
